<svg width="800" height="800" viewBox="0 0 800 800" fill="none" xmlns="http://www.w3.org/2000/svg">
<rect width="800" height="800" fill="#D9D9D9"></rect>
<rect width="800" height="800" fill="#1E4040"></rect>
<path d="M136.62 369.34C135.66 367.96 134.64 366.94 133.44 366.22C132.24 365.5 130.56 365.14 128.46 365.14C126.54 365.14 125.04 365.56 124.08 366.4C123.12 367.24 122.64 368.32 122.64 369.7C122.64 371.38 123.3 372.64 124.62 373.48C125.94 374.32 128.04 375.1 130.8 375.76C132.96 376.36 134.82 376.96 136.38 377.68C137.94 378.4 139.26 379.24 140.28 380.2C141.3 381.22 142.08 382.42 142.56 383.74C143.04 385.06 143.34 386.68 143.34 388.48C143.34 390.16 143.04 391.78 142.44 393.22C141.84 394.72 141 395.98 139.8 397.06C138.6 398.14 137.16 399.04 135.36 399.64C133.56 400.24 131.46 400.54 129.06 400.54C125.4 400.54 122.28 400.06 119.7 398.98C117.12 397.9 114.9 396.16 113.1 393.76L119.52 389.32C120.6 390.76 121.86 391.78 123.24 392.44C124.56 393.16 126.36 393.46 128.52 393.46C130.92 393.46 132.54 393.04 133.5 392.14C134.46 391.24 134.94 390.16 134.94 388.84C134.94 388.12 134.76 387.52 134.52 386.92C134.28 386.32 133.8 385.78 133.2 385.3C132.6 384.82 131.7 384.4 130.62 383.92C129.54 383.5 128.16 383.08 126.48 382.6C122.34 381.52 119.28 379.96 117.24 377.92C115.2 375.88 114.24 373.18 114.24 369.7C114.24 368.08 114.48 366.58 115.08 365.14C115.62 363.7 116.46 362.5 117.6 361.42C118.74 360.4 120.18 359.56 121.98 358.96C123.78 358.36 125.88 358.06 128.4 358.06C131.7 358.06 134.58 358.66 137.04 359.74C139.44 360.88 141.42 362.56 142.92 364.84L136.62 369.34ZM174.792 375.04H189.132V358.6H197.532V400H189.132V382.12H174.792V400H166.392V358.6H174.792V375.04ZM253.047 382.24C253.047 385.42 252.627 388.18 251.847 390.46C251.067 392.74 249.987 394.66 248.607 396.16C247.167 397.66 245.487 398.74 243.567 399.46C241.587 400.18 239.427 400.54 237.147 400.54C234.807 400.54 232.647 400.18 230.727 399.46C228.807 398.74 227.127 397.66 225.747 396.16C224.307 394.66 223.227 392.74 222.447 390.46C221.667 388.18 221.307 385.42 221.307 382.24V376.36C221.307 373.18 221.667 370.42 222.447 368.14C223.227 365.86 224.307 363.94 225.747 362.44C227.127 360.94 228.807 359.86 230.727 359.14C232.647 358.42 234.807 358.06 237.147 358.06C239.427 358.06 241.587 358.42 243.567 359.14C245.487 359.86 247.167 360.94 248.607 362.44C249.987 363.94 251.067 365.86 251.847 368.14C252.627 370.42 253.047 373.18 253.047 376.36V382.24ZM229.707 382.24C229.707 386.2 230.307 389.08 231.567 390.82C232.827 392.62 234.687 393.46 237.147 393.46C239.547 393.46 241.407 392.62 242.727 390.82C243.987 389.08 244.647 386.2 244.647 382.24V376.36C244.647 372.4 243.987 369.58 242.727 367.78C241.407 366.04 239.547 365.14 237.147 365.14C234.687 365.14 232.827 366.04 231.567 367.78C230.307 369.58 229.707 372.4 229.707 376.36V382.24ZM299.31 400L291.87 383.74H285.15V400H276.75V358.6H291.57C296.31 358.6 300.09 359.68 302.85 361.78C305.61 363.94 307.05 367.06 307.05 371.26C307.05 374.08 306.39 376.42 305.19 378.22C303.99 380.08 302.25 381.46 299.97 382.36L308.55 400H299.31ZM290.79 376.66C293.31 376.66 295.23 376.3 296.61 375.58C297.93 374.86 298.65 373.42 298.65 371.26C298.65 369.1 297.93 367.66 296.61 366.88C295.23 366.16 293.31 365.74 290.79 365.74H285.15V376.66H290.79ZM356.381 358.6V365.74H338.981V375.04H354.581V382.12H338.981V392.92H356.381V400H330.581V358.6H356.381ZM384.301 358.6L393.361 386.44L402.421 358.6H411.601L397.201 400H389.581L375.121 358.6H384.301ZM458.477 358.6V365.74H441.077V375.04H456.677V382.12H441.077V392.92H458.477V400H432.677V358.6H458.477ZM502.658 369.34C501.698 367.96 500.678 366.94 499.478 366.22C498.278 365.5 496.598 365.14 494.498 365.14C492.578 365.14 491.078 365.56 490.118 366.4C489.158 367.24 488.678 368.32 488.678 369.7C488.678 371.38 489.338 372.64 490.658 373.48C491.978 374.32 494.078 375.1 496.838 375.76C498.998 376.36 500.858 376.96 502.418 377.68C503.978 378.4 505.298 379.24 506.318 380.2C507.338 381.22 508.118 382.42 508.598 383.74C509.078 385.06 509.378 386.68 509.378 388.48C509.378 390.16 509.078 391.78 508.478 393.22C507.878 394.72 507.038 395.98 505.838 397.06C504.638 398.14 503.198 399.04 501.398 399.64C499.598 400.24 497.498 400.54 495.098 400.54C491.438 400.54 488.318 400.06 485.738 398.98C483.158 397.9 480.938 396.16 479.138 393.76L485.558 389.32C486.638 390.76 487.898 391.78 489.278 392.44C490.598 393.16 492.398 393.46 494.558 393.46C496.958 393.46 498.578 393.04 499.538 392.14C500.498 391.24 500.978 390.16 500.978 388.84C500.978 388.12 500.798 387.52 500.558 386.92C500.318 386.32 499.838 385.78 499.238 385.3C498.638 384.82 497.738 384.4 496.658 383.92C495.578 383.5 494.198 383.08 492.518 382.6C488.378 381.52 485.318 379.96 483.278 377.92C481.238 375.88 480.278 373.18 480.278 369.7C480.278 368.08 480.518 366.58 481.118 365.14C481.658 363.7 482.498 362.5 483.638 361.42C484.778 360.4 486.218 359.56 488.018 358.96C489.818 358.36 491.918 358.06 494.438 358.06C497.738 358.06 500.618 358.66 503.078 359.74C505.478 360.88 507.458 362.56 508.958 364.84L502.658 369.34ZM559.736 358.6V365.74H548.336V400H539.936V365.74H528.536V358.6H559.736Z" fill="#FAF6EE"></path>
<path d="M121.542 450.256C121.43 450.452 121.262 450.62 121.038 450.76C120.814 450.9 120.45 450.942 119.946 450.886C119.442 451.95 118.826 453.07 118.098 454.246C117.37 455.394 116.544 456.528 115.62 457.648C114.724 458.74 113.716 459.72 112.596 460.588L112.176 460.126C112.82 458.95 113.38 457.634 113.856 456.178C114.36 454.694 114.78 453.224 115.116 451.768C115.452 450.284 115.676 448.954 115.788 447.778L121.542 450.256ZM119.316 424.3C121.024 424.524 122.354 424.902 123.306 425.434C124.286 425.938 124.944 426.498 125.28 427.114C125.644 427.73 125.756 428.332 125.616 428.92C125.504 429.48 125.21 429.942 124.734 430.306C124.286 430.67 123.754 430.852 123.138 430.852C122.522 430.852 121.878 430.586 121.206 430.054C121.15 429.074 120.884 428.08 120.408 427.072C119.96 426.064 119.484 425.224 118.98 424.552L119.316 424.3ZM125.07 458.488C125.07 459.468 124.944 460.322 124.692 461.05C124.44 461.778 123.922 462.366 123.138 462.814C122.354 463.262 121.136 463.556 119.484 463.696C119.456 463.024 119.414 462.45 119.358 461.974C119.302 461.498 119.162 461.106 118.938 460.798C118.714 460.49 118.392 460.224 117.972 460C117.58 459.776 116.992 459.594 116.208 459.454V458.908C116.208 458.908 116.348 458.922 116.628 458.95C116.936 458.95 117.286 458.964 117.678 458.992C118.098 459.02 118.49 459.048 118.854 459.076C119.218 459.104 119.484 459.118 119.652 459.118C119.96 459.118 120.156 459.048 120.24 458.908C120.324 458.768 120.366 458.586 120.366 458.362V440.05H125.07V458.488ZM147.33 462.394C147.302 462.534 146.938 462.786 146.238 463.15C145.566 463.542 144.6 463.738 143.34 463.738H142.458V439.252H147.33V462.394ZM151.362 428.416C151.11 428.64 150.774 428.766 150.354 428.794C149.962 428.822 149.444 428.738 148.8 428.542C147.82 428.878 146.658 429.2 145.314 429.508C143.998 429.816 142.598 430.096 141.114 430.348C139.63 430.6 138.16 430.796 136.704 430.936L136.536 430.39C137.684 429.886 138.874 429.284 140.106 428.584C141.338 427.856 142.486 427.114 143.55 426.358C144.642 425.602 145.524 424.916 146.196 424.3L151.362 428.416ZM139.602 429.634C139.49 429.914 139.126 430.096 138.51 430.18V441.94C138.51 443.816 138.412 445.748 138.216 447.736C138.048 449.696 137.642 451.642 136.998 453.574C136.354 455.478 135.36 457.298 134.016 459.034C132.7 460.742 130.88 462.296 128.556 463.696L128.094 463.276C129.774 461.232 131.02 459.048 131.832 456.724C132.644 454.372 133.162 451.95 133.386 449.458C133.638 446.938 133.764 444.404 133.764 441.856V427.744L139.602 429.634ZM147.288 435.598C147.288 435.598 147.456 435.738 147.792 436.018C148.128 436.27 148.548 436.62 149.052 437.068C149.556 437.488 150.074 437.936 150.606 438.412C151.166 438.888 151.67 439.336 152.118 439.756C152.09 439.98 151.964 440.148 151.74 440.26C151.544 440.372 151.292 440.428 150.984 440.428H136.032V439.252H144.642L147.288 435.598ZM131.538 433.498C131.454 433.722 131.286 433.918 131.034 434.086C130.81 434.226 130.46 434.282 129.984 434.254C129.34 435.178 128.514 436.214 127.506 437.362C126.526 438.51 125.518 439.574 124.482 440.554H123.852C124.104 439.714 124.356 438.776 124.608 437.74C124.86 436.704 125.084 435.668 125.28 434.632C125.504 433.568 125.686 432.602 125.826 431.734L131.538 433.498ZM116.292 431.776C117.748 432.42 118.854 433.12 119.61 433.876C120.394 434.604 120.898 435.332 121.122 436.06C121.374 436.788 121.416 437.446 121.248 438.034C121.108 438.594 120.814 439.042 120.366 439.378C119.946 439.686 119.47 439.812 118.938 439.756C118.406 439.7 117.874 439.392 117.342 438.832C117.37 437.712 117.216 436.522 116.88 435.262C116.572 434.002 116.222 432.91 115.83 431.986L116.292 431.776ZM125.826 448.534C127.422 449.122 128.64 449.794 129.48 450.55C130.348 451.278 130.922 452.02 131.202 452.776C131.51 453.532 131.594 454.232 131.454 454.876C131.342 455.492 131.062 455.982 130.614 456.346C130.194 456.71 129.704 456.878 129.144 456.85C128.584 456.822 128.01 456.528 127.422 455.968C127.45 455.156 127.366 454.316 127.17 453.448C127.002 452.58 126.75 451.74 126.414 450.928C126.106 450.116 125.756 449.402 125.364 448.786L125.826 448.534ZM129.9 436.648C129.9 436.648 130.138 436.858 130.614 437.278C131.09 437.67 131.65 438.146 132.294 438.706C132.938 439.266 133.498 439.798 133.974 440.302C133.862 440.75 133.498 440.974 132.882 440.974H112.554L112.218 439.756H127.59L129.9 436.648ZM129.144 442.99C129.144 442.99 129.368 443.186 129.816 443.578C130.292 443.942 130.824 444.39 131.412 444.922C132 445.454 132.546 445.972 133.05 446.476C132.938 446.924 132.56 447.148 131.916 447.148H113.268L112.932 445.972H127.002L129.144 442.99ZM129.228 427.702C129.228 427.702 129.452 427.898 129.9 428.29C130.376 428.654 130.922 429.102 131.538 429.634C132.154 430.166 132.714 430.684 133.218 431.188C133.106 431.636 132.728 431.86 132.084 431.86H113.268L112.932 430.684H127.002L129.228 427.702ZM194.244 433.624V434.8H169.926V433.624H194.244ZM186.642 424.846C186.614 425.126 186.488 425.378 186.264 425.602C186.04 425.798 185.662 425.952 185.13 426.064V434.212H180.216V424.342L186.642 424.846ZM199.284 426.652C199.256 426.932 199.13 427.184 198.906 427.408C198.682 427.604 198.29 427.744 197.73 427.828V435.598C197.73 435.682 197.52 435.808 197.1 435.976C196.708 436.144 196.19 436.298 195.546 436.438C194.93 436.55 194.286 436.606 193.614 436.606H192.774V426.064L199.284 426.652ZM174.168 426.652C174.14 426.96 174 427.226 173.748 427.45C173.524 427.646 173.146 427.786 172.614 427.87V429.256H167.742V426.736V426.022L174.168 426.652ZM171.396 428.08L172.614 428.794V434.8H172.866L171.312 437.026L166.146 434.38C166.454 434.044 166.832 433.708 167.28 433.372C167.756 433.008 168.19 432.756 168.582 432.616L167.742 434.17V428.08H171.396ZM194.538 440.89C194.538 440.89 194.776 441.086 195.252 441.478C195.756 441.87 196.344 442.36 197.016 442.948C197.716 443.536 198.346 444.11 198.906 444.67C198.794 445.09 198.416 445.3 197.772 445.3H174.42L174.126 444.124H192.102L194.538 440.89ZM196.848 448.66C196.848 448.66 197.002 448.786 197.31 449.038C197.618 449.262 197.996 449.57 198.444 449.962C198.92 450.354 199.41 450.788 199.914 451.264C200.446 451.712 200.922 452.146 201.342 452.566C201.23 452.986 200.852 453.196 200.208 453.196H172.488L172.194 452.02H194.328L196.848 448.66ZM187.902 462.604C187.902 462.716 187.538 462.926 186.81 463.234C186.082 463.57 185.06 463.738 183.744 463.738H182.82V444.124H187.902V462.604ZM197.1 435.346C197.1 435.346 197.254 435.472 197.562 435.724C197.87 435.976 198.262 436.312 198.738 436.732C199.214 437.124 199.704 437.544 200.208 437.992C200.74 438.44 201.216 438.86 201.636 439.252C201.524 439.672 201.146 439.882 200.502 439.882H169.338V438.706H194.58L197.1 435.346ZM166.944 438.286V436.69L172.74 438.706H171.984V446.098C171.984 447.47 171.9 448.94 171.732 450.508C171.564 452.048 171.172 453.602 170.556 455.17C169.968 456.738 169.072 458.25 167.868 459.706C166.692 461.134 165.068 462.408 162.996 463.528L162.618 463.192C163.962 461.512 164.928 459.72 165.516 457.816C166.104 455.884 166.482 453.924 166.65 451.936C166.846 449.948 166.944 448.016 166.944 446.14V438.706V438.286ZM231.96 455.884C235.712 456.024 238.806 456.304 241.242 456.724C243.678 457.144 245.582 457.662 246.954 458.278C248.326 458.866 249.264 459.468 249.768 460.084C250.3 460.7 250.51 461.274 250.398 461.806C250.286 462.338 249.964 462.758 249.432 463.066C248.9 463.402 248.27 463.57 247.542 463.57C246.814 463.57 246.114 463.332 245.442 462.856C244.21 461.876 242.446 460.784 240.15 459.58C237.882 458.376 235.096 457.34 231.792 456.472L231.96 455.884ZM236.832 448.366C236.72 448.618 236.538 448.842 236.286 449.038C236.034 449.206 235.67 449.276 235.194 449.248C234.998 450.676 234.718 452.02 234.354 453.28C234.018 454.512 233.458 455.66 232.674 456.724C231.89 457.788 230.742 458.754 229.23 459.622C227.746 460.49 225.744 461.26 223.224 461.932C220.732 462.632 217.582 463.234 213.774 463.738L213.522 463.024C216.63 462.268 219.192 461.484 221.208 460.672C223.224 459.86 224.834 458.978 226.038 458.026C227.242 457.074 228.124 456.052 228.684 454.96C229.272 453.868 229.664 452.664 229.86 451.348C230.084 450.032 230.224 448.59 230.28 447.022L236.832 448.366ZM224.316 456.556C224.316 456.696 224.106 456.892 223.686 457.144C223.266 457.368 222.734 457.578 222.09 457.774C221.474 457.97 220.83 458.068 220.158 458.068H219.486V444.712V442.654L224.652 444.712H243.384V445.888H224.316V456.556ZM240.528 444.712L242.796 442.234L247.5 445.804C247.388 445.972 247.192 446.14 246.912 446.308C246.66 446.476 246.31 446.602 245.862 446.686V455.464C245.862 455.548 245.624 455.674 245.148 455.842C244.7 456.01 244.154 456.178 243.51 456.346C242.894 456.486 242.32 456.556 241.788 456.556H240.948V444.712H240.528ZM238.596 432.7C238.988 433.708 239.702 434.66 240.738 435.556C241.774 436.424 243.23 437.194 245.106 437.866C247.01 438.51 249.376 439.042 252.204 439.462V439.966C251.056 440.218 250.188 440.652 249.6 441.268C249.012 441.884 248.662 442.864 248.55 444.208C246.17 443.508 244.266 442.542 242.838 441.31C241.41 440.05 240.318 438.678 239.562 437.194C238.834 435.71 238.316 434.268 238.008 432.868L238.596 432.7ZM240.36 431.398C240.332 431.678 240.192 431.916 239.94 432.112C239.716 432.308 239.366 432.434 238.89 432.49C238.722 433.666 238.428 434.8 238.008 435.892C237.588 436.984 236.86 438.02 235.824 439C234.816 439.952 233.346 440.82 231.414 441.604C229.482 442.388 226.906 443.102 223.686 443.746L223.392 443.032C225.772 442.192 227.662 441.324 229.062 440.428C230.49 439.532 231.568 438.594 232.296 437.614C233.024 436.606 233.514 435.556 233.766 434.464C234.018 433.344 234.186 432.154 234.27 430.894L240.36 431.398ZM214.908 425.308C216.7 425.308 218.114 425.504 219.15 425.896C220.214 426.288 220.984 426.778 221.46 427.366C221.936 427.926 222.16 428.5 222.132 429.088C222.132 429.676 221.95 430.194 221.586 430.642C221.222 431.09 220.746 431.37 220.158 431.482C219.57 431.566 218.926 431.398 218.226 430.978C218.058 430.306 217.778 429.648 217.386 429.004C217.022 428.332 216.588 427.702 216.084 427.114C215.58 426.498 215.076 425.994 214.572 425.602L214.908 425.308ZM216.168 436.144C216.532 436.144 216.798 436.116 216.966 436.06C217.134 436.004 217.372 435.822 217.68 435.514C217.932 435.318 218.156 435.136 218.352 434.968C218.548 434.772 218.8 434.52 219.108 434.212C219.444 433.876 219.906 433.428 220.494 432.868C221.11 432.28 221.936 431.482 222.972 430.474C224.008 429.438 225.338 428.122 226.962 426.526L227.55 426.904C227.13 427.436 226.612 428.122 225.996 428.962C225.38 429.774 224.75 430.6 224.106 431.44C223.462 432.28 222.874 433.05 222.342 433.75C221.838 434.422 221.502 434.898 221.334 435.178C221.054 435.626 220.816 436.074 220.62 436.522C220.424 436.97 220.326 437.376 220.326 437.74C220.326 438.188 220.424 438.636 220.62 439.084C220.816 439.532 221.012 440.022 221.208 440.554C221.432 441.086 221.516 441.758 221.46 442.57C221.432 443.298 221.166 443.886 220.662 444.334C220.158 444.782 219.43 445.006 218.478 445.006C218.058 445.006 217.68 444.852 217.344 444.544C217.036 444.236 216.812 443.83 216.672 443.326C216.924 441.674 216.994 440.358 216.882 439.378C216.77 438.37 216.462 437.74 215.958 437.488C215.65 437.348 215.328 437.236 214.992 437.152C214.684 437.068 214.334 437.012 213.942 436.984V436.144C213.942 436.144 214.082 436.144 214.362 436.144C214.67 436.144 215.006 436.144 215.37 436.144C215.734 436.144 216 436.144 216.168 436.144ZM236.37 425.182C236.342 425.406 236.216 425.574 235.992 425.686C235.768 425.798 235.376 425.868 234.816 425.896C234.032 427.296 233.066 428.696 231.918 430.096C230.798 431.468 229.552 432.728 228.18 433.876C226.808 435.024 225.324 435.976 223.728 436.732L223.308 436.438C224.288 435.458 225.184 434.296 225.996 432.952C226.836 431.608 227.564 430.166 228.18 428.626C228.824 427.058 229.314 425.546 229.65 424.09L236.37 425.182ZM244.98 428.836L247.458 426.316L251.868 430.474C251.7 430.642 251.49 430.754 251.238 430.81C250.986 430.866 250.65 430.922 250.23 430.978C249.726 431.454 249.124 431.972 248.424 432.532C247.724 433.064 246.996 433.596 246.24 434.128C245.484 434.632 244.77 435.08 244.098 435.472L243.72 435.178C243.944 434.59 244.168 433.904 244.392 433.12C244.616 432.336 244.826 431.566 245.022 430.81C245.218 430.026 245.358 429.368 245.442 428.836H244.98ZM247.248 428.836V430.012H229.314L229.902 428.836H247.248ZM285.804 433.96C286.644 436.004 287.694 437.936 288.954 439.756C290.214 441.548 291.614 443.214 293.154 444.754C294.694 446.266 296.304 447.61 297.984 448.786C299.664 449.934 301.358 450.9 303.066 451.684L302.94 452.104C301.96 452.3 301.064 452.79 300.252 453.574C299.468 454.33 298.866 455.31 298.446 456.514C296.318 454.974 294.414 453.112 292.734 450.928C291.082 448.744 289.626 446.252 288.366 443.452C287.134 440.652 286.112 437.558 285.3 434.17L285.804 433.96ZM283.956 434.632C282.36 439.476 279.868 443.872 276.48 447.82C273.092 451.74 268.836 455.002 263.712 457.606L263.292 457.186C265.7 455.282 267.856 453.056 269.76 450.508C271.692 447.96 273.344 445.258 274.716 442.402C276.088 439.546 277.138 436.732 277.866 433.96H283.956V434.632ZM287.358 424.972C287.33 425.308 287.19 425.588 286.938 425.812C286.714 426.036 286.266 426.204 285.594 426.316V462.184C285.594 462.352 285.398 462.548 285.006 462.772C284.614 462.996 284.096 463.192 283.452 463.36C282.836 463.556 282.178 463.654 281.478 463.654H280.512V424.258L287.358 424.972ZM289.374 449.08C289.374 449.08 289.528 449.22 289.836 449.5C290.144 449.752 290.536 450.102 291.012 450.55C291.488 450.97 291.978 451.432 292.482 451.936C293.014 452.412 293.49 452.874 293.91 453.322C293.798 453.77 293.42 453.994 292.776 453.994H272.742L272.406 452.776H286.77L289.374 449.08ZM296.556 429.97C296.556 429.97 296.738 430.124 297.102 430.432C297.466 430.74 297.914 431.118 298.446 431.566C299.006 432.014 299.58 432.504 300.168 433.036C300.756 433.54 301.302 434.016 301.806 434.464C301.694 434.912 301.302 435.136 300.63 435.136H265.308L264.93 433.96H293.658L296.556 429.97Z" fill="#C93B2A"></path>
</svg>