<svg xmlns="http://www.w3.org/2000/svg" viewBox="0 0 1200 700" role="img" aria-labelledby="title desc">
  <title id="title">Operational geography across the Pacific</title>
  <desc id="desc">Institutional trans-Pacific map showing California, Shanghai, Guangzhou, and Hong Kong.</desc>

  <defs>
    
  </defs>

  <rect class="ocean" x="0" y="0" width="1200" height="700"></rect>

  <g transform="translate(590 190) scale(0.62)">
    <path class="land" d="M770.8 386.8l-5.1 3.1-4.5-2 0.2-5.6 2.9-2.9 6.3-1.8 3.3 0.1 1.1 2.5-2.7 2.8-1.5 3.8z m123.1-154l-3.1-3.8-2.4 3.6-8.3 2.8 0.5 3.4-4.5-0.2-2.3-2.1-4.1 4.6-6.2 3.5-4.7 4.1-7.6 1.9-4.3 3-5.9 1.8 3.2-3-0.9-2.5 4.7-4.4-2.3-3.4-4.9 2.3-6.5 4.5-3.8 4.2-5.3 0.3-3.1 3 2.3 4.4 4.2 1.1-0.1 2.9 4 1.9 6.5-4.7 4.5 2.6 3.4 0.1 0.6 3.4-7.8 1.8-2.9 3.5-5.6 3.3-3.3 4.6 5.5 3.5 1.5 6.4 2.8 6 3.3 5-0.5 4.8-3.6 1.8 1.1 3.5 3.1 2-1.3 5.3-1.7 5.1-3.2 0.6-4.5 7-5 8.6-5.7 7.7-8 6-8.1 5.5-6.4 0.8-3.6 2.8-1.8-2.1-3.4 3.3-8 3.2-6 1-2.4 6.9-3.1 0.4-1.2-4.7 1.5-2.6-7.5-2-2.7 1-5.5-1.7-2.5-2.6 1.1-3.8-5-1.1-2.6-2.5-5 3.5-5.5 0.7-4.5 0-3.1 1.6-3 0.9 0.3 7.5-3-0.2-0.4-1.5 0-2.7-4.2 1.9-2.4-1.2-4-2.5 2.1-5.4-3.4-1.2-0.8-6-6.1 1.1 1.5-7.7 5.8-5.5 0.8-5.3 0.4-5-2.2-1.6-1.4-3.8-3.3 0.5-5.9-1 2.3-2.7-2.1-4.1-4.3 2.8-4.4-1.6-7 4.1-5.7 4.9-4.6 0.8-2.1-1.8-3-0.1-3.7-1.5-3.2 1.6-4.4 4.8 0.3-5.1-3.6 1.4-6.4-0.6-6-1.5-4.1-2.9-4.1-1.3-1.3-3.1-2.9-0.9-4.9-4.3-4-2-2.6 1.6-6.7-4.6-4.6-4.1 0-7.1 3.7 0.8 0.9-3.3-1.4-3.3 1.8-5.3-4-7.6-8.2-2.7-0.3-5-3.1-3-0.5-1.8 0.3-3.7 0.9-2.6-2.8-1.4-2 0.6 0.5-6 2-1.4-0.3-1.6 6-3 4.1-1.3 5.3 0.9 3.3-4.1 7-0.8 2.6-2.5 9.4-3.5 1.2-1.5 0.8-3.7 4.1-1.6-1-11.2 11-2.5 3.1-1.4 7.5-11.4 9.4 2.1 3.7-2.9 2.4-6.4 4.4-0.6 5.2-4.2 2.1-0.5-0.1 4.4 3.1 3.4 6.5 2.4 2 5.1-4.2 7.4 1.1 2.8 5.8 1.1 6.7 0.9 5.1 4 3 0.7 0.9 5.9 2.1 3.8 5.8-0.2 10.4 1.5 7.2-0.9 4.9 0.9 6.9 4 6.3-0.1 2 2.1 6.7-3.5 8.9-2.2 7.9-0.3 6.5-2.2 4.4-3.5 4-2.1-0.5-2.2-1.2-2.4 3.5-4.1 2.8 0.5 5.1 1.3 5.7-3.4 8.2-2.4 4.5-4.2 3.8-1.9 7.6-0.8 3.9 0.7 0.9-2.2-3.9-4.5-3.7-2-4.3 2.3-4.8-1-3 0.8-0.9-2.5 4.7-6.4 3.3-4.7 5.6 2.4 7.7-4 0.4-2.8 5.7-6.6 3.1-2 0.5-3.5-2.4-1.4 4.6-3.1 6.2-1.1 6.5-0.2 7 1.8 3.9 2.3 2.1 6.3 1.5 2.7 1.2 3.8 1.1 6.2 8.4 2 5.5 4.5 1.4 5.9 7.7 0 4.6-2.5 8.5-1.8-3.1 5.7-2.1 2.3-2.3 7-4 6.2-6.1-1.1-4.7 2.2 0.9 5.5-1.4 7.6-2.7 0.2-0.2 3.2z"></path>
    <path class="land" d="M911.6 286.2l0.6 2.2-3.3 4-2.1-2.1-2.9 1.5-1.6 3.8-3.5-1.9 0.2-3 3.2-3.9 3.1 0.7 2.4-2.7 3.9 1.4z m35-19.4l-2.2 5.1 0.9 3.3-3 4.6-7 3-9.6 0.4-8.1 7.4-3.5-2.5 0-4.8-9.5 1.4-6.6 3.1-6.4 0.1 5.3 4.8-4.3 11-3.7 2.8-2.5-2.5 1.7-5.9-3.4-1.9-1.9-4.5 5.3-2 3.1-4 5.7-3.4 4.2-4.4 10.9-2 5.7 1.3 6.2-11.5 3.4 3.1 8.1-6.5 3.2-2.5 3.6-7.9-0.6-7.3 2.4-4.1 5.7-1.1 2.5 8.9-0.3 5.3-5.1 6.5-0.2 6.7z m16.9-45.4l3.6 1.4 3.8-2.8 1 7.2-7.8 1.8-4.8 6.4-8-4.4-3.2 7-5.8 0.1-0.4-6.4 2.8-4.9 5.5-0.4 1.9-8.8 1.7-5 5.8 6.6 3.9 2.2z"></path>
    <path class="land" d="M867.6 262.8l0.3-0.6 2.4 0.3 2.3-3 3.8-0.3 2.4-0.4 0.9-1.6 4 7.7 1 4.2-0.5 7.5-2.3 3.5-5 1.3-4.6 2.7-4.9 0.5-0.3-3.5 1.4-4.9-1.8-6.7 4-1.1-3.1-5.6z"></path>
    <path class="land" d="M833.2 360.1l-2.6 5.3-2.7-5.5-0.4-4.8 3.6-6.4 4.7-4.9 2.5 1.9-1.2 3.9-3.9 10.5z"></path>
    <path class="land" d="M859.8 453.5l0.5 4.4 0.3 3.6-2 6-2-6.7-2.7 3.3 1.7 4.8-1.6 3.1-6.7-3.8-1.6-4.7 1.8-3.1-3.6-3.1-1.8 2.7-2.7-0.2-4.3 3.6-0.9-1.9 2.3-5.5 3.6-1.8 3.2-2.5 2 3 4.4-1.8 0.9-2.9 4.1-0.2-0.3-5 4.6 3.1 0.5 3.3 0.3 2.3z m-13.5-12.1l-2.1 2.2-1.8 4.1-1.9 1.9-3.4-4.5 1.2-1.7 1.5-1.9 0.7-4 3.2-0.4-1.1 4.4 4.4-6.3-0.7 6.2z m-31.4 6.3l-7.8 6.2 2.9-4.6 4.3-4 3.5-4.5 3.1-6.5 0.9 5.3-3.8 3.6-3.1 4.5z m19.7-16.8l3.4 2 3.6 0-0.2 2.8-2.7 2.7-3.7 2-0.1-3.1 0.5-3.3-0.8-3.1z m20.7-1.7l1.4 7.2-4.4-1.7 0.1 2.2 1.3 4-2.7 1.5-0.2-4.6-1.7-0.3-0.8-4 3.4 0.5-0.1-2.4-3.3-5 5.5 0.1 1.5 2.5z m-22.6-5.9l-1.6 5.6-2.4-3.2-2.7-5 4.8 0.2 1.9 2.4z m0.1-35.4l3.5 1.9 1.8-1.7 0.4 1.7-1 2.6 1.7 4.7-1.7 5.4-3.4 2.2-1.1 5.2 1.1 5.2 3 0.7 2.6-0.8 7 3.6-0.7 3.6 1.9 1.5-0.7 3-4.4-3.1-2-3.5-1.5 2.4-3.5-3.9-5.2 1-2.8-1.4 0.4-2.7 1.8-1.7-1.7-1.5-0.8 2.4-2.7-3.8-0.7-2.8 0-6.2 2.2 2.1 1-10.2 2.1-5.9 3.4 0z"></path>

    <g transform="translate(-2000 0)">
      <path class="land" d="M1302.7 384.2l-0.7 1.1-1.5-1 0-1.8-1.1-2.4 0.2-0.7 0.9-1-0.5-1.3 0.3-0.6 0.4 0.1 2.3 1.1 1 0.6 1 0.8 1.7 2.3-0.2 0.4-2 1.4-1.8 1z m-3.8-10.2l-1.9 0.5-1-1.4-0.7-0.5-0.1-0.4 0.5-0.6 2 0.6 1.6 1-0.4 0.8z m-4.1-3.4l-0.1 0.7-3.1-0.2 0.4-0.8 2.8 0.3z m-5.1-1l-0.3 0.4-0.4-0.1-2-0.2-0.8-1.5-0.3-0.3 1.5-0.9 0.5 0.5 1.8 2.1z m-9.9-4.3l-0.6 0.7-2-1.2 0.3-0.5 0.8-0.6 1.3 0.1 0.2 1.5z m323.5-168.4l-3.9 2.1-2 2.6-1.9 2.7 0.6 0.9 4.3-1.3 4.4 2.2 3-1.7 2.8-2 3.2-2.1 0.4 3.3 3.4 0.8 5.1 2.5 3.6-1.5 4.7-0.5 2.2 1.8 1.7 0.2 1.5 0.2 4.1 2.6-4.2 0.5-0.2 0-4.4-0.7-3.2 1.3-3.2 0.6-0.6 4.1-0.6 2.3 1.1 0.8 1.4-4.1 0.7-0.1 0.3 5 1.4 4.4 1.1 3.6 2.4 3.2 0.8 1.6 0.9 1.7 3.3 3.3 0.7 0.5 1.8-0.1 1-0.7 0.6-0.9 0.4-3.1-2.3-4.2-4-4-1.4-2.7-0.5-3.2 0.1-2.1 1.1-1.5 1.8 2.1-1-3.2 0.7-0.6-0.7-2.4 5.1 1.2 5.3 2.5 2.2 2.9 1.3 3-1.3 2.5 1.2 1.6 1.1 0.1 1.5-2.8 2.3 0.6 3.2 3.7 1.8 2.7-0.4 3.5 0.2 2.2-0.4 2.5 4 1.4 2.8 0.3 3.3-0.9 2.1-1.7 2.2-0.9 2.8-1.9 2.2-3.8-0.5-0.6-1.6-2 2-0.7 4.2 0.2 4.6 0.6 2.6-2.2-1.9-2.5-1.1-0.9 2.4-4.4 1.6-1.2 7.8 0 9.5 0-0.6-1.6 1.5-0.3 1.5-1-0.2-2.9-1.8-5 0.5-4.8 2.8 1.7 2.7-1.1 3.5 1.8 6.1 8.7 5.9 3.6 2.3 2.1-3.4 3.1-3.8 2.2-4.2 1.9-0.3 3.8 0.1 1.5 2.1 3.4 3.9 3.4 2.2 0.2-2-2.4 2.5 1.5 0.7 1.8-2.9 1-2.6-0.1-3.2 1.1-2.1 0.4-2.9 0.3-3.2 1.8 7-1.2 2.3 1.3-6.3 1.9-3.3 0-0.3-0.8-0.6 1.8 1.7 0.3 1.5 4.6-1.1 5-1.3-1.6-1.4-0.4-2.6-1.6 3 3.5 1.9 1.1 1.4 2.5-0.4 2.5-0.4 5.2-0.6-0.3-0.6-4.4-4-2.5-3.4-5.3 0.4 2.8 3.3 4.1-4.1-1.1 4.8 2.1 3.3 6.2 1.7 0.4 1.7 2.3 3.8 6.5-1.2 4.8-4.8 1.9-1.9 3.9-2.5 0.4-1.8 2.4 0.1 2.1-4.2 4.3-1.9 3.1-1.1 3.8 0.8 4.6 2.6 4.6 3.7 5.5 4 4.6 0.9 2.8 4.9 7.6 1 4.4 0.4 2.5-0.3 4-1.5 0.8-2.9-0.8-1.6-2.9-2.6-1.5-4.4-5.6-4-4.9-1.6-2.6-0.2-4.3-2.7-3.6-6.1-5.4-2.5-1-4.6 2.9-1-0.3-3.7-3-4-1.6-6 0.8-5.1-0.7-4.1 0.4-1.9 1 1.5 1.8 0.8 2.6 1.6 1.3-0.8 0.8-2.4-0.9-1.7 1.2-4-0.2-5.2-3.4-4.6 0.8-4.5-1.5-3.3 0.4-4.1 1.6-3.7 4.8-4.7 2.8-2.2 3.1-0.5 2.9 1.1 4.5 1 3.1 1.6 2.2-2.1 0.2-4.3-1.4-4.8-2-2.3-3.1-2.4-4.5-4.2-3.7-3-3.8-4-4.5-4.6-2.6-4.5 0.1-2 5.2-5.1-2-3.4-1.9-2.4-3.6-2.8-3.4-4.1-2.9-3.5-2-2.7-2.3-9.5 0 0.8 2.7-4.3 0-10.9 0-13.9-4.6-9.1-3.1 0.1-1.3-6.7 0.7-6.1 0.5-1.9-3.3-4.6-3.8-2.8-0.7-1.1-1.9-3.2-0.3-2.4-1.8-5.3-0.6-1.7-1.1-1.7-3.6-7.3-6.5-7.3-9-0.3-1.5-3.1-2.1-5.9-5.5-2.6-5.2-4.1-3.6-0.8-5.3-2.3-5.5-3.6-5-0.3-6-1.8-5.8-1.8-5.8-4.5-8.6-4-5.4-2.7-3 0-1.2 8.3 2.2 5.3 5.9 0.6-1.6-3.2-5.2-4.1-5.2 14.3 0 14.9 0 4.9 0 15.3 0 14.8 0 15.1 0 15 0 17.1 0 17.2 0 10.3 0-1.4-2.4 1.6-0.1 3.1 3.5 2.2 1.1 3.7 0.4 5.8 1 6.1 1.9 3.6-0.8 7.2 1.6z m-339.9-56.5l-3.8 2.3-3-1.6-1.8-2.8 3.4-2.2 2.2-0.9 3.2 0.4 2.8 1.9-3 2.9z m-64.4-16.8l-2.6 0.9-3.3-1.1-3.3-1.6 4.2-1.1 3.8 0.6 1.2 2.3z m-34.9-22.8l3.1 1.1 2.6-0.6 4 1.6 4.7 0.7-0.2 0.7-3 1.2-3.7-1.3-2.1-1-3.8 0.3-1.2-0.5-0.4-2.2z m116.7-33.3l12.2 20.6 17.6 33.1 4.6 0.2 5.3 1.6 4.6 2.6 6.1 4 2.8-3.4 3.5-1.9 4.2 3.1 4.4 2.4 5.7 2.7 5.3 4.4 8.5 6.9 10.1 3.9 2.2 3.8-1.1 3-3.9-2.3-5.2-2-4.1-5.3-8.7-4.9-5.5-5.7-4.7-0.4-7.5-0.2-6.3-1.7-12.8-6.2-5-1.1-9-2.2-6.1 0.5-10.3-2.7-6.6-2.5-4.5 1.2 2.8 4.2-2.4 0.3-4.7 1.3-3.2 2-4.6 1.3-2.1-3.6-0.5-5.8 4.1-1.8-1.9-1.5-4.4 3.3-1.4 4-4.9 4.2 4.5 2.9-2.6 4.3-4.1 2.6-4 1.8-0.2 2.7-6.2 3.1-0.5 2.9-4.7 2.6-3.5-0.5-3.9 1.7-4.1 2.1-3.4 2.1-7.7 1.8-1.1-1.1 4.4-2.9 4.1-1.9 4-3.3 5.7-0.7 1.5-2.5 5.3-3.6 0.6-1.2 2.7-2.2-0.8-4.6 1-3.5-4.7 1.8-1.8-1-1.8 2.2-4.1-3.1-0.5 2.2-2.8-3-3.8 2.4-2.8 0-1.6-3.6 0-2.2-3.7-2.1-5.5 1.1-4.8-2.8-3.6-1.4-1.2-3.3-4.3-2.6 0.6-3.3 2.6-3.3 0.5-3 3.5-0.4 3.4 0.9 2.5-2.8 3.4 0.5 2.7-1.8-1.8-2.6-2.9-1.1 2.4-2.2-2.7 0.1-4.1 1.2-0.9 1.3-3.9-1.3-6 0.7-6.9-1.4-2.6-2.3-6.7-3.3 5.3-2.4 8.6-2.7 3.5 0 0.5 2.8 9-0.2-4.9-3.5-6.1-2.2-4.1-2.8-4.9-2.3-6.5-1.8 1.3-2.9 7.3-0.2 4.3-2.5-0.2-2.6 3.1-2.6 3.8-0.6 6.6-2.4 4 0.4 4.8-2.9 6.7 1.1 4.2 2.5 1.3-1.1 7.1 0.3 0.4 1.3 6.8 0.9 3.9-0.5 9.6 1.7 8.2 0.5 3.6 0.7 4.9-0.9 7.3 1.6 4.9 0.8z"></path>
      <path class="land" d="M1741.2 206.2l4.3 0.9 4.6-0.2-0.6 2.6-1.6 0.4-8.4-2.7-2.8-2.1 0.5-2 4 3.1z m-2.9-16.2l-2.3 0.1-8.1-1.9-7-3 1.3-0.5 7.8 1.5 7.2 2.7 1.1 1.1z m-307.7 3.8l-2.2 0.9-9.5-2.9-2.5-2.3-5.5-2.2-1.7-1.8-5.7-1.1-3.5-3.4-0.2-1.5 5.8 1.4 3.5 1 5 0.6 2.7 2.2 3.9 3 6.2 2.6 3.7 3.5z m327.7-13.7l1.4 5.5 1.5-2.2 4.5 1.4 0.1 2.2 5.9 1.7 1-1.5 6.6 1.9 2.3 4.6 2.7-1 3.4 3.3 4.7 4 2.3 5.6-2.1 0.2-4.3-1.2-3-5.2-2-0.8-1.6 5.5-3.2-0.2 1.3-3-6.1-1.6-5.2 0.4-9.9-0.2-2.3-1.9 1.4-2.2-3.5-1.7 1.1-3.8-3.3-10-0.1-3.6 2.4-2.1 2.5 0.2 0.6 1.7 0.9 4z m-392.3-21.7l2.7 0.8 4.3-0.5 2 7 6.7 5-2 0-4.3-2.8-3.1-2.9-3.4-1.9-2.2-2.7-0.7-2z m216.3-48.1l1.3 3.1-2.5-0.5-2.9-1.8-0.2-0.4 0-1.8 1.9 0.2 2.4 1.2z m-15-3.3l-2.1 3.3-3.3-0.2-2.5-1.5 0.7-2.7 6.2 0 1 1.1z m-31.3-16.9l3.3 2.5 1.4-0.9 4 1.5 6.8 2 6.8 1.7 3.2 2.8 2.8-0.5 5.1 1.9-2.1 1.9-8.3-1.4-5.1-2.6-1.3 3.1-3.4 3-4.8-3.4-5.5 0.5 1.1-2.8-3.9-4.6-3.7-5.2 3.6 0.5z m30.9-8.5l-4.4 0.3-4.1-2.7-1.8-3.1 3-0.8 5.1 1.5 2.8 2.4 0.3 0.8-0.9 1.6z m-94.9-10.8l-0.7 1.9-7.3-1.7-2.8 0.6-8.1-2.4 2-1.7 0.5-2.4 5.9 1.6 3.5 1 2.3 1 4.7 2.1z m257.8 144.4l-5.9-3.6-6.1-8.7-3.5-1.8-2.7 1.1-2.8-1.7-0.5 4.8 1.8 5 0.2 2.9-1.5 1-1.5 0.3 0.6 1.6-9.5 0-7.8 0-1.6 1.2-2.4 4.4-0.1-0.1-1.4-0.4-1.1 0.9-0.5 1.4-3.1-1.2-3.8 0.8-3.1 1-1.1 0.7-0.2 2.2 2.4 0.6 1.4-0.3 0.2-0.1 1.6 2-4 0.7-2.1 0.9-0.8 1-3.2-0.7-1.4 0.3-1.2 1.8-2.7 2.1-3.1-0.5-0.2-2.2 0.4-3.5 2.1-2.2-0.6-1.8-2.2-3 0.3-3.6-3.1-4 5 4 4.8 0.8 0.3-2.1-6.4-4.9-2.9-2-5.4-1.2-4.5-0.6-4-0.1-4.3-0.8-1.9-1.4-0.3 0.9-1.5-0.2-0.3-2.1-2.6-0.8-0.7-2.4-3.2-1.9-0.3-1.8-6.2-1-4-3.5-1.8-0.9-3.6-0.1-5.5-1.3-0.6 0.8-0.1 1.6-2.2 0.9-0.5 2.5-7.2-1.6-3.6 0.8-6.1-1.9-5.8-1-3.7-0.4-2.2-1.1-3.1-3.5-1.6 0.1 1.4 2.4-10.3 0-17.2 0-17.1 0-15 0-15.1 0-14.8 0-15.3 0-4.9 0-14.9 0-14.3 0-0.7 0-12.6-6.2-4.8-2.7-10.2-2.6-5.4-5.6-1.2-3.8-7.6-2.6-3.4-5-8.1-4.5-1.7-3.2 1.1-3-2.2-3.8-10.1-3.9-8.5-6.9-5.3-4.4-5.7-2.7-4.4-2.4-4.2-3.1-3.5 1.9-2.8 3.4-6.1-4-4.6-2.6-5.3-1.6-4.6-0.2-17.6-33.1-12.2-20.6 8.6 1.3 8.2 2.6 4.7 0.5 2.2-2.3 3.9-1.7 6.6 0.7 4.5-2.4 5.8-1.3 4.5 2.2 2.1-1.3-0.9-2.5 3.2 0.6 10.7 4.8 2.7-3.6 3.7 4.1 4.4-0.9 0.3-1.6 5.3 0.3 8.2 2.3 11.3 2 6.5 0.9 3.8-0.3 8 2.8-3.7 2.7 8.6 1.2 10.9-0.6 2.8-1 7.4 3.3 2.2-2.8-6.4-2.3 1.1-1.9 4.8-0.3 2.9-0.5 4.6 1.3 6.9 3 4.3-0.4 9.8 2.5 5.8-0.9 6.3 0.1-3.8-3.4 2.8-1 8.3 1.9 5.1 5.2-1.6-4.4 3.5 0.1-3.6-5.5-7.9-3.4-7.1-2.2-5.9-5.9 0.6-3.9 6.3 0.9 6.7 2.3 12.1 6.1-0.8 2.6 8.9 1.2 5.8 5.6 1.1-4.3 8.8 3.5 3 4.1 8 3.8 0.2-4.1-2-4.7-6.4-6 6.4 0.4 7 0.8 8.6 2.7 3.4 2.7 0.1 3 6.2 2.9 2.4 2.8-4.2 3.9-5.1 0.9-6.1-1.7 1.6 2.8 0.6 4.8 1.2 2.5-1.3 3.9-6 0.4-1.2 2.4 3.2 3.8-4.5 0.7-1.2 4.8 0.9 6.6 2.2 4.7 5.5 6.9 7.6 1 6.8 5.6 5.9 4.6 5.6-1.2 10.9 2.7 6.6 2.3 5.8 2.9 7.4 1.6 7.1 2.6 8.2 0.4 5.7 0.6 3.7 5.3 6.5 6.2 9 7 11.9 5.9 2.2-2-2.4-6.4-10.5-9.8-6.2-3.3 5.3-2.9 1.6-4.2-1.1-4.3-4.1-4.1-7.9-5.1-9.9-4.5-0.5-6.3-7.2-5.4-10.7-9.2 1.8-1.3 9.3 1.6 5.2 0.5 2.1-1.5 6.3 2 9 3.4 3.8 2.3 8.6 0.4 5 5 9.2 7.6 5.1 0.9 7 3.5 3.3-3.3-2.4-6.6 0.1-2.8 9.2 5.4 14.1 7.6 12.6 7.3 1.9 3.8 9.8 3.4 7.7 3.5 9.3 1.6 5 2 7 5.2 4.6 0.8 4.2 2.4 6.9 6.9-1.4 2.4-1.5 2.2-6.2 2.2-1.8 5.2-7.6 1-11.7-1.3-7.5-0.1-4.8 0.4-0.6 4.6-4.2 2.8-1.1 8.3-1.7 5.9 3.6-1.1 2.1-8.3 6.6-5.3 7-0.6 6.8 3.1-1.5 4.3 6.7 6.8 5.1 4.8 8.9 3.2 7.8-0.9-0.1-7.2 3.8 4.6 5 2.3-3.3 4.2-8.7 3.8-3.3 2.6-2.7 4.6-4.2-0.4-3.9-5.5 5.2-5.3-8 0.3-5.2 0.7z m-354.4-165.9l0.4 2.5 7.3-1.6 8.2 2.6 1.8-2.6 5.4 1.7 8.4 5.2-0.1-2.2-8.3-5.4 2.7-0.8 4.8 0.9 6.7 2.1 7.7 5.1 5 3.8 9.5 2.6 10 2.6 1.8 2.4-6.3 0.4 4.6 2.1 0.5 2-8.4-0.8-8.5-1.5-4.6 0.3-6.1 1.9-9.9 0.8-7.1 0.5-4.4-2.6-7-1.5-3.1 0.7-8.7-4.4 2.2-0.5 5.6-1 6 0.3 4.5-1-9-1.2-8.4 0.4-5.9-0.1-3.8-2 7.5-2.1-6.2 0-8.2-1.4-0.1-3.9 0.8-2.1 7.7-3.2 5 1z m36.7-1.5l0.2 3.4-10-3.6 0.5-0.8 5.1-0.2 4.2 1.2z m113.6 1.6l2.3 1.5-4.4-0.2-4.5-0.1-3.4 0.7-1.6-0.3-8-2.8-2.3-1.9 1.4-0.3 9.8 0.6 10.7 2.8z m-40.9-0.3l7.1 3.3-1.6-4.2 7.3-2.2 13.8 5.4 3.8 3.5 6-1.6 1.1-2 12.3 2.6 8.9 2.5 3.5 2.4 6-1.2 8.6 3.4 12.6 2.1 6.4 2.2 10.4 5.1-4.5 2.5 14.4 3.6 8.2 1.2 12.4 5.2 7.2 0.4 3.5 3.9 0.3 6.6-8.3-2.4-13.2-5.5-4.7 0.7 3.2 3.3 8.4 3.3 8.9 2.6 3.6 1.6 9.4 5.7 3.2 4.2-7.4-1.6-16.3-4.7 11.8 5 8.5 3.6 3 2-14.7-2.3-13.3-3.4-8.4-2.9-0.2-1.6-9.8-3-9.4-2.7 1.9 1.6-11.8 0.9-5.8-1.9-1.5-4.3 8-0.1 8.2-0.7-3.7-2-1.6-2.8-0.7-5.5-4-2.5-3.9-1.9-9.6-2.7-10.7-1.8 1.1-1.4-8.4-3.4-4-0.3-5.5-1.9-0.3 1.6-6.7 0.7-16.4-1.2-10.5-1.6-7.6-0.8-5.5-1.9 1.5-2.4-5.8-0.1-7.4-5.3-2.6-4.7 1.5-2.1 8.4-1.4 1.4 3.3z m-58.8-3.5l5.9 1.1 6.3-0.7 2.8 1.5-0.8 2.5 8.5 2.3 4.5 4.7-4.4 2.1-4.4-0.5-4.9-2-14.3-4.1-1.7-1.7 8.8 0.7-8.1-3.4 1.8-2.5z m34.8 5.5l0.2 4-4.8-0.2-7.7-4.6-3-2.6-0.5-2.2 2.2-1.4 8.4 0.1 9 1.3-0.2 4.6-3.6 1z m-102.3 7.4l-8.6 2.6-4.1-2.4-11.6-2.8-0.1-2.2-0.5-3.9 0.5-3.4-6.7-3.1 12.4-0.8 6.6 1 10.3 0.3 5.2 1.5 6.4 2.2-3.7 1.3-6.4 3.7-1.7 3.7 2 2.3z m86.7-18.8l0.4 2-6.1-0.4-6.4-1.3-0.8-2.3 3.7-1.3 5.7 1.7 3.5 1.6z m-30.2-8.7l5.9 2.3 3.5 2.6 3.1 3.7-5.8 0.6-5.1-0.8-3.6-3-5.8 0.4-5.1-3.9 4.3 0.2 3.5-1.7 5.7 0.3-0.6-0.7z m-33.5 2.6l3.7 1.8 2.3-0.9 4.3 0.2 3.6 2.5 0.5 2.4-12.2 0.8-7.4 2.2-5.8 0.1-2.3-1.6 5.6-2.3-16.7 0.6-6.4-0.9 0-4.9 2-1.4 12.5 1.7 10.2 3 7.2 0.3-11.1-4.7 1.3-1.8 4.6 0.5 4.1 2.4z m45.2-4.4l6.4 1.5 7.4 0 5.6 1.7 1.8 1.8 5.9 1.2 4.1 1.2 5.5 0.2 6.2 0.4 4.5-1.1 7.2-0.4 6.7 0.3 7 1.9 3.9 2.1-0.5 1.4-4.2 1.1-5.9-0.6-10.1 0.8-7.9 0-7.1-0.6-12.5-1.6-5-2.8-3.8-2.5-6.8-2.2-8.7-0.6-6.4-1.5-1.4-2 8.1 0.3z m-83.6-2.7l3.8 3.7-0.9 1.8-3.3 0.2-4.8 2.1-5.3 0.8-6.2-1.1 2.5-3.7 4.2-3.1 5.7 0 4.3-0.7z m83.9 0.6l-1.5 0.2-7.5-0.4-2.9-1.3 7.6 0.1 3.9 0.9 0.4 0.5z m-61.9-0.8l-5.2 1.4-7.4-1.6 1.1-1.5 4.8-0.5 6.1 0.7 0.6 1.5z m-3.6-4.3l-3.2 0.9-6.1 0-0.8-0.7 2-1.4 2.2 0.2 5.9 1z m54.3 2.5l-4 1-4.6-1.1-4.1-1.8-3.1-1.9 5 0.2 2.6 0.3 6.7 1.6 1.5 1.7z m-17.3-1.2l4.2 2-6.8-0.6-8.2-1.5-8.4-0.2 1.7-1.4-6-1.1-2.6-1.7 7.9 0.6 12.2 1.7 6 2.2z m37.9-6.2l6.7 1.5-2.7 1.4-1.2 3.5-6 0.3-8.5-0.6-6.8-1.9-2.5-1.7 1-1.2-6.6 0-6.2-1.5-5.4-2-0.5-1.9 0.4-1.3 3.1-0.3-3.1-0.9 7.8-0.3 8.2 2.3 7.5 0.9 7.1 0.8 7.7 2.9z m38.1-14.1l9.7 0.3 8.3 0.4 8.5 1.1 2.1 1-4.8 1.7-6.6 0.8-1.3 0.9 7.5 0-3.2 2.5-3.3 1.2 0.7 3.6-6.1 0.8-0.6 0.9-10 0.5 6 0.5-1.1 0.8 7 2.3-0.7 1.6-3.4 1.4 1.4 1.9-2.9 1.4 2.3 1.1 6.1-0.2 2 1.2-5.4 3-12-1.4-10 0.8-6.5-0.6-7.5-0.3-3.9-2.3 5.2-1.1-7.1-3.5 1.7-0.3 13.2 2-9.9-3-7.4-0.9 0.1-1.9 4.7-1.1-1.6-1.5-8-1.8-5.3-2.3 10 0.2 3.6 0.5 2.8-1.6-8.8-0.5-11.9 0.3-8.7-1.5-5.8-1.7-6.1-1.2-3.1-1.4 3.8-0.7 3.8-0.1 5.7-0.7 2.4-1.4 4.6 0.2 5.7 1.1-1.3-2.1 3.3-0.6 5.3-0.4 10.1-0.2 2.6 0.4 8.5-0.6 7.8 0.2 7.8 0.3z"></path>
      <path class="land" d="M1683.3 388l-1 0.1-1.4 3.9-1.1-0.8-0.7 0.3 0.2 1-5.2-0.1-5.3 0 0.6 3.7-2.6 0 2.5 2.1 2.3 1.6 0.9 1.4 1 0.4 0.2 2.2-7.3 0-1.9 5.3 0.9 1.2-0.4 1.5 0.1 1.9-7.4-7-3.3-2.1-4.8-1.7-3.1 0.5-4.2 2.4-2.8 0.7-4.3-1.7-4.4-1.3-5.7-3-4.4-0.9-6.9-3-5.2-3.1-1.7-1.7-3.2-0.4-6.1-2.1-2.9-3-6.6-3.6-3.5-4.1-1.8-3.2 1.8-0.6-0.9-1.9 1.1-1.7-0.4-2.2-2.3-3-1-2.5-2.4-3.3-6.1-6.5-6.5-5.1-3.5-4-5.3-2.7-1.4-1.6 0-4-3.1-1.5-4-3.2-2.4-4.5-3.1-0.5-4.1-3.5-3.3-3.1-0.8-2-4.2-5-3.3-4.9-0.6-2.5-4.7-2.6-1.7 0.3-3.7-1.8-0.1 2.6 1.7 3.1 1.9 4.9 2.5 2.7 5.3 4.5 1.3 1.5 0.9 0.5 1.3 2.2 0.9-0.1 2.1 4.2 2.1 1.7 1.7 2.3 4.2 3.3 3.1 6 2.2 2.9 2.1 3 1 3.5 2.7 0.2 2.8 2.9 2.5 2.9 0 1.2-1.9 2.4-1 0-2.2-4-4.3-3.7-4.5-3.2-3.2-1.6-0.7-4.8-1.5-3.5-3.1-2-4.4-2.9-0.6 0.8-1.8-1.7-3.7-1.5-4.1-3.8 0.3-0.5 2.3 0.4 1.5-2.5-0.4-2.9-5.4-4.6-3.7-1.8-3-4.1-3.2-4.3-3.9-5.2-3.9-5.8 6.1-0.5 6.7-0.7-0.1 1.3 9.1 3.1 13.9 4.6 10.9 0 4.3 0-0.8-2.7 9.5 0 2.7 2.3 3.5 2 4.1 2.9 2.8 3.4 2.4 3.6 3.4 1.9 5.1 2 2-5.2 4.5-0.1 4.6 2.6 4 4.5 3 3.8 4.2 3.7 2.4 4.5 2.3 3.1 4.8 2 4.3 1.4 2.1-0.2-0.9 5.7 0 4.7 1.2 8.7 0.1 3.2 1.6 3.6 2.3 3.1 1.9 5.1 4.6 4.8 1.9 3.7 2.8 3.2 6.3 1.8 2.8 2.7 4.6-1.8 4.2-0.7 4.1-1.2 3.3-1.1 3.2-2.6 0.6-3.8-0.5-5.5 0.7-1.9 3.5-1.7 5.6-1.5 5.1 0.2 3.3-0.5 1.6 1.4 0.4 3.1-2.3 3.8-0.7 4 1.3 1.1-0.4 2.9-0.5 5-1.7-1.6-1.2 0.1z"></path>
    </g>

    <path class="coast" d="M-718 266 C-596 252 -470 247 -348 254"></path>
    <path class="coast" d="M604 304 C644 290 680 296 720 322"></path>
    <path class="coast" d="M586 352 C612 348 626 356 640 374"></path>

    <g>
      <circle class="marker" cx="-675" cy="276" r="5.2"></circle>
      <circle class="marker-ring" cx="-675" cy="276" r="7.8"></circle>

      <circle class="marker-primary" cx="675" cy="316" r="5.2"></circle>
      <circle class="marker-ring" cx="675" cy="316" r="7.8"></circle>

      <circle class="marker-core" cx="629" cy="362" r="5.4"></circle>
      <circle class="marker-ring" cx="629" cy="362" r="8"></circle>

      <circle class="marker" cx="634" cy="367" r="4.8"></circle>
      <circle class="marker-ring" cx="634" cy="367" r="7.2"></circle>
    </g>

    <text class="label" x="-643" y="268">California</text>
    <text class="label" x="695" y="309">Shanghai</text>
    <text class="label" x="615" y="357" text-anchor="end">Guangzhou</text>
    <text class="label" x="652" y="389">Hong Kong</text>
  </g>
</svg>